<?xml version="1.0" encoding="UTF-8" standalone="no"?>
<svg
   xml:space="preserve"
   id="Layer_1"
   width="960"
   height="960"
   viewBox="0 0 960 960"
   x="0"
   y="0"
   version="1.1"
   sodipodi:docname="io.stillhq.stillCenter.svg"
   inkscape:version="1.4.2 (ebf0e940d0, 2025-05-08)"
   xmlns:inkscape="http://www.inkscape.org/namespaces/inkscape"
   xmlns:sodipodi="http://sodipodi.sourceforge.net/DTD/sodipodi-0.dtd"
   xmlns:xlink="http://www.w3.org/1999/xlink"
   xmlns="http://www.w3.org/2000/svg"
   xmlns:svg="http://www.w3.org/2000/svg"><sodipodi:namedview
     id="namedview1"
     pagecolor="#ffffff"
     bordercolor="#000000"
     borderopacity="0.25"
     inkscape:showpageshadow="2"
     inkscape:pageopacity="0.0"
     inkscape:pagecheckerboard="0"
     inkscape:deskcolor="#d1d1d1"
     inkscape:zoom="0.5"
     inkscape:cx="362"
     inkscape:cy="396"
     inkscape:window-width="1920"
     inkscape:window-height="1043"
     inkscape:window-x="0"
     inkscape:window-y="0"
     inkscape:window-maximized="1"
     inkscape:current-layer="Layer_1" /><defs
     id="defs1"><linearGradient
       id="linearGradient1"><stop
         id="stop1"
         offset="0"
         style="stop-color:#a0b4cc;stop-opacity:1" /><stop
         id="stop2"
         offset="1"
         style="stop-color:#86aad2;stop-opacity:1" /></linearGradient><linearGradient
       xlink:href="#linearGradient1"
       id="linearGradient2"
       x1="414.912"
       x2="624.882"
       y1="241.058"
       y2="241.058"
       gradientUnits="userSpaceOnUse" /></defs><style
     id="style1"
     type="text/css">.st3{fill:#a67c52}</style><g
     id="g1"
     transform="matrix(1.7002095,0,0,1.7002095,-333.16362,-496.67517)"><path
       id="polygon1"
       d="M 270.7,460.8 480,380.7 689.3,460.8 V 595.1 H 270.7 Z"
       style="fill:#254381;fill-opacity:1" /><path
       id="polygon6"
       d="m 546.8,324.047 -66.8,56.103 209.3,81.2 66.623,-55.954 a 9.796,9.796 0 0 0 -2.756,-16.634 l -178.65,-69.308 a 27.58,27.58 0 0 0 -27.716,4.593"
       class="st3"
       style="fill:#426dc8;fill-opacity:1" /><path
       id="polygon7"
       d="m 480,380.7 -209.3,81.2 -71.392,-59.958 a 6.11,6.11 0 0 1 1.72,-10.377 l 187.316,-72.671 a 22.4,22.4 0 0 1 22.505,3.73 z"
       class="st3"
       style="fill:#426dc8;fill-opacity:1" /><g
       id="path2395"
       style="stroke-miterlimit:0"
       transform="matrix(-0.1408,0.51375,-0.43717,-0.17186,483.938,816.179)"><path
         id="path6"
         d="m -813.973,223.86 c 31.297,-68.151 91.352,-111.569 164.46,-128.281 a 241.43,241.43 0 0 1 207.633,49.281"
         style="baseline-shift:baseline;display:inline;overflow:visible;vector-effect:none;fill-opacity:0;stop-color:#000000;stop-opacity:1" /><g
         id="g3"><path
           id="path2392"
           fill="#95b3d7"
           stroke="#ffffff"
           d="m 623.892,253.569 a 104.745,104.745 0 1 1 -207.99,-25.021 104.745,104.745 0 1 1 207.99,25.021 z"
           style="fill:url(#linearGradient2);stroke-width:0.452598;stroke-miterlimit:0"
           transform="matrix(-0.69077,-2.06497,1.75718,-0.56592,-681.107,1442.815)" /><path
           id="path4"
           d="m -595.512,85.445 c -17.96,0.379 -36.253,2.72 -54.73,6.944 -74.097,16.938 -129.944,69.262 -161.665,138.334 l 0.115,1.511 c 30.875,-67.23 90.889,-116.978 163.009,-133.464 72.308,-16.53 147.7,-1.23 204.73,45.916 l -2.362,-5.645 c -43.928,-36.316 -95.215,-54.73 -149.097,-53.596"
           style="baseline-shift:baseline;display:inline;overflow:visible;vector-effect:none;fill:#ffffff;stroke-miterlimit:0;stop-color:#000000;stop-opacity:1"
           transform="matrix(-0.98592,-0.34625,0.26925,-0.92063,-1286.469,237.232)" /><path
           id="path3178"
           fill="none"
           stroke="#ffffff"
           stroke-width="3.613"
           d="M 542.734,138.267 494.14,343.919"
           style="stroke-miterlimit:0"
           transform="matrix(-0.69077,-2.06497,1.75718,-0.56592,-681.107,1442.815)" /><path
           id="path2396"
           fill-opacity="0"
           stroke="#ffffff"
           stroke-width="3.266"
           d="m 575.409,153.386 c -12.773,8.71 -24.019,8.993 -40.285,5.433 -16.266,-3.56 -27.805,-7.919 -34.856,-20.967"
           style="stroke-miterlimit:0"
           transform="matrix(-0.69077,-2.06497,1.75718,-0.56592,-681.107,1442.815)" /><path
           id="path3170"
           fill-opacity="0"
           stroke="#ffffff"
           stroke-width="3.266"
           d="M 606.909,301.79 A 124.08,105.155 6.858 0 1 415.637,257.55"
           style="stroke-miterlimit:0"
           transform="matrix(-0.69077,-2.06497,1.75718,-0.56592,-681.107,1442.815)" /><path
           id="path2393"
           fill-opacity="0"
           stroke="#ffffff"
           stroke-linecap="round"
           stroke-width="3.266"
           d="M 623.555,244.7 A 164.982,139.81 9.508 0 1 424.34,202.023"
           style="stroke-miterlimit:0"
           transform="matrix(-0.69077,-2.06497,1.75718,-0.56592,-681.107,1442.815)" /><path
           id="path7"
           d="m -594.338,86.234 a 244.6,244.6 0 0 0 -55.904,6.153 c -73.369,16.772 -131.108,61.67 -163.004,129.903 -0.405,0.866 -0.671,2.343 -0.602,3.296 l 0.258,3.532 c 0.069,0.953 0.448,1.022 0.853,0.156 31.089,-66.37 92.23,-114.109 163.954,-130.504 72.12,-16.487 150.542,5.23 207.56,52.367 l -1.323,-2.98 C -486.483,111.834 -538.46,86.55 -594.338,86.234"
           style="baseline-shift:baseline;display:inline;overflow:visible;vector-effect:none;fill:#ffffff;stop-color:#000000;stop-opacity:1" /></g></g><g
       id="g98"
       transform="translate(-256.09809,-108.43404)"><path
         id="rect45-9"
         d="m 861.193,494.055 c 1.485,0 2.97,0.38 4.292,1.143 l 75.617,43.66 a 8.62,8.62 0 0 1 4.292,7.432 v 87.316 a 8.62,8.62 0 0 1 -4.292,7.433 l -75.617,43.658 a 8.62,8.62 0 0 1 -8.583,0 l -75.618,-43.658 a 8.62,8.62 0 0 1 -4.291,-7.433 V 546.29 a 8.62,8.62 0 0 1 4.291,-7.431 l 75.618,-43.66 a 8.6,8.6 0 0 1 4.291,-1.144 m 98.888,161.564 0.004,0.046 -0.081,0.033 z"
         style="fill:#4a90d9;fill-opacity:1;fill-rule:evenodd;stroke-width:2.02641" /><path
         id="path48-3"
         d="m 861.23,494.055 q 0.751,0.003 1.491,0.136 l 4.023,48.018 -6.37,54.458 -40.684,-21.73 c -19.854,-10.604 -40.027,-21.6 -42.697,-24.52 v -4.127 a 8.62,8.62 0 0 1 4.291,-7.431 l 75.618,-43.66 a 8.6,8.6 0 0 1 4.328,-1.144"
         style="fill:#4a90d9;fill-opacity:1;fill-rule:evenodd;stroke-width:0.896482" /><path
         id="path9124-6"
         d="m 778.147,542 83.046,47.948 v 95.894 a 8.6,8.6 0 0 1 -4.291,-1.145 l -75.618,-43.658 a 8.62,8.62 0 0 1 -4.291,-7.433 V 546.29 c 0,-1.526 0.411,-3.004 1.154,-4.29"
         style="mix-blend-mode:normal;fill:#ffffff;fill-opacity:1;fill-rule:nonzero;stroke:none;stroke-width:0.732643px;stroke-linecap:butt;stroke-linejoin:miter;stroke-opacity:1" /><path
         id="path9126-0"
         d="m 861.193,494.055 c 1.485,0 2.97,0.38 4.292,1.143 l 75.617,43.66 a 8.6,8.6 0 0 1 3.138,3.143 l -83.047,47.947 z"
         style="mix-blend-mode:normal;fill:#ffffff;fill-opacity:1;fill-rule:nonzero;stroke:none;stroke-width:0.732643px;stroke-linecap:butt;stroke-linejoin:miter;stroke-opacity:1" /></g><path
       id="path17"
       fill="#1e62b5"
       d="m 552.036,534.828 c -8.276,18.181 -19.112,32.282 -31.443,40.924 a 127.66,127.66 0 0 0 52.424,-25.693 c -5.492,-5.783 -12.597,-10.943 -20.981,-15.23 m 0,0"
       style="fill:#626971;fill-opacity:1;stroke-width:2.12719" /><path
       id="polygon2"
       d="m 664.71,761.722 -181.51,69.55 a 2.356,2.356 0 0 1 -3.2,-2.2 V 543.1 l 209.3,-82.3 v 265.167 a 38.29,38.29 0 0 1 -24.59,35.755"
       style="fill:#1a2f5a;fill-opacity:1" /><g
       id="g43"
       transform="matrix(0.94003,0,0,0.94003,7.275,23.684)"><path
         id="path63"
         fill="#9a9996"
         d="m 344.185,440.714 a 31.464,31.464 0 0 0 -12.12,42.927 l 73.165,130.741 a 31.464,31.464 0 0 0 42.927,12.121 31.464,31.464 0 0 0 12.121,-42.927 L 387.113,452.835 a 31.464,31.464 0 0 0 -42.928,-12.121 m 80.867,144.503 c 5.699,-3.19 12.91,-1.153 16.098,4.545 3.19,5.699 1.153,12.909 -4.545,16.098 -5.698,3.189 -12.909,1.153 -16.098,-4.546 -3.189,-5.699 -1.153,-12.908 4.545,-16.097 m 0,0"
         style="stroke-width:3.94266" /><g
         id="g42"><path
           id="path61"
           fill="#9a9996"
           d="m 387.682,389.264 c 17.012,30.4 6.158,68.842 -24.243,85.855 -30.4,17.013 -68.842,6.158 -85.855,-24.242 -17.013,-30.4 -6.158,-68.843 24.242,-85.855 30.4,-17.013 68.843,-6.159 85.856,24.242 m 0,0"
           style="stroke-width:3.94266" /><g
           id="g41"><path
             id="path62"
             fill="#deddda"
             d="m 383.83,382.383 c 17.013,30.4 6.159,68.842 -24.242,85.855 -30.4,17.013 -68.842,6.158 -85.855,-24.242 -17.013,-30.4 -6.158,-68.843 24.242,-85.855 30.4,-17.013 68.843,-6.159 85.856,24.242 m 0,0"
             style="stroke-width:3.94266" /><path
             id="path64"
             fill="#deddda"
             d="m 340.334,433.833 a 31.464,31.464 0 0 0 -12.12,42.927 l 73.165,130.741 a 31.464,31.464 0 0 0 42.927,12.121 31.464,31.464 0 0 0 12.122,-42.928 l -73.166,-130.74 a 31.464,31.464 0 0 0 -42.928,-12.121 m 80.868,144.503 c 5.698,-3.19 12.909,-1.153 16.097,4.545 3.19,5.699 1.153,12.909 -4.545,16.098 -5.698,3.189 -12.909,1.153 -16.098,-4.546 -3.189,-5.699 -1.153,-12.908 4.546,-16.097 m 0,0"
             style="stroke-width:3.94266" /><path
             id="path65"
             fill="#a7a6a4"
             d="m 355.738,461.357 c 7.607,-4.257 17.207,-1.546 21.463,6.06 l 34.658,61.93 c 4.257,7.607 1.546,17.207 -6.06,21.464 -7.608,4.257 -17.208,1.546 -21.465,-6.06 l -34.657,-61.93 c -4.257,-7.607 -1.546,-17.207 6.06,-21.464 m 0,0"
             style="stroke-width:3.94266" /></g></g></g><path
       id="path66"
       fill="#865e3c"
       d="m 269.6,369.003 35.2,-17.79 30.946,50.022 -13.975,20.562 -24.836,1.157 z"
       style="fill:#426dc8;fill-opacity:1;stroke-width:3.70623" /><path
       id="polygon3"
       d="m 287.279,758.574 191.592,72.5 a 6.73,6.73 0 0 0 9.11,-6.486 L 480,543.1 270.7,460.8 v 273.774 a 25.66,25.66 0 0 0 16.579,24"
       style="fill:#254381;fill-opacity:1" /><path
       id="polygon5"
       d="m 480,543.1 -209.3,-81.2 -64.95,54.548 a 11.09,11.09 0 0 0 3.12,18.83 l 170.204,66.032 a 39.2,39.2 0 0 0 39.389,-6.528 z"
       class="st3"
       style="fill:#426dc8;fill-opacity:1" /><path
       id="polygon5-2"
       d="m 480,543.1 209.3,-82.1 64.95,54.548 a 11.09,11.09 0 0 1 -3.12,18.83 L 580.926,600.41 a 39.5,39.5 0 0 1 -39.488,-6.409 z"
       class="st3"
       style="fill:#426dc8;fill-opacity:1" /></g></svg>
